<?xml version="1.0" encoding="UTF-8" standalone="no"?>
<svg
   xmlns:dc="http://purl.org/dc/elements/1.1/"
   xmlns:cc="http://creativecommons.org/ns#"
   xmlns:rdf="http://www.w3.org/1999/02/22-rdf-syntax-ns#"
   xmlns:svg="http://www.w3.org/2000/svg"
   xmlns="http://www.w3.org/2000/svg"
   viewBox="0 0 30.238047 35.693558"
   height="35.693558"
   width="30.238047"
   version="1.1"
   id="svg2">
  <metadata
     id="metadata8">
    <rdf:RDF>
      <cc:Work
         rdf:about="">
        <dc:format>image/svg+xml</dc:format>
        <dc:type
           rdf:resource="http://purl.org/dc/dcmitype/StillImage" />
        <dc:title></dc:title>
      </cc:Work>
    </rdf:RDF>
  </metadata>
  <defs
     id="defs6" />
  <path
     id="path4144"
     d="m 5.4273557,35.226744 c 0,-0.241251 0.36847,-1.127115 0.818801,-1.968587 0.660388,-1.233949 0.43938,-1.980867 -1.142339,-3.860643 C 2.5951825,26.416189 1.214476,21.801089 1.8402696,18.488982 4.2893705,5.5270841 21.176803,3.048985 27.158335,14.773757 c 2.598405,5.093293 1.672381,10.625962 -2.552121,15.247723 -1.277135,1.397239 -1.39359,1.938867 -0.617881,2.873539 1.462843,1.762616 0.192608,3.142471 -1.490538,1.619214 -1.061677,-0.960821 -2.261461,-1.137864 -5.156505,-0.760922 -2.075111,0.270173 -4.679496,0.141878 -5.787515,-0.28511 -1.6409753,-0.632384 -2.2506053,-0.500647 -3.2875613,0.710418 -1.201839,1.403631 -2.838858,2.008035 -2.838858,1.04813 z M 21.6041,29.686682 C 24.764656,27.371164 26.502762,23.42974 26.10126,19.488623 25.456941,13.16386 20.316813,8.9268681 14.061304,9.5641301 2.9571835,10.695321 0.2224197,25.25771 10.134485,30.474171 c 3.273882,1.722962 8.53617,1.361661 11.469615,-0.787489 z M 13.956043,18.583934 c 0,-3.389693 1.709646,-4.117584 2.18034,-0.928277 0.188315,1.275214 0.877779,1.692708 3.101333,1.877607 4.281824,0.356053 3.444346,1.75475 -1.211195,2.022787 l -4.070478,0.234349 0,-3.206466 z M 0.891458,11.435988 C 0.4011659,10.945696 0,9.0284171 0,7.1753691 0,2.5130128 2.5165145,0 7.1853977,0 c 2.690262,0 3.8039243,0.4433389 5.4625653,2.1745952 1.145866,1.1960264 2.083391,2.3718368 2.083391,2.6129066 0,0.241068 -1.555436,0.8738113 -3.456524,1.4060873 C 9.3737117,6.7258631 6.4602947,8.3237281 4.8005815,9.7443921 2.5267575,11.690695 1.5631331,12.107682 0.891458,11.435988 Z M 8.1410187,4.8055948 C 11.228642,3.2309809 11.233793,3.2207589 9.3080477,2.4938313 6.5009947,1.4342484 3.3690215,2.7686653 2.4455735,5.4176701 c -0.9177726,2.632738 -0.322587,3.521043 1.368195,2.041962 0.674253,-0.58984 2.6215312,-1.784156 4.3272502,-2.6540373 z M 25.37355,9.7101161 c -1.609384,-1.397565 -4.487807,-2.978263 -6.3965,-3.512661 -1.908694,-0.534404 -3.470355,-1.2099193 -3.470355,-1.5011541 0,-0.291243 0.97856,-1.4670378 2.174602,-2.6129068 C 19.342546,0.4918049 20.632041,0 23.143863,0 c 4.59647,0 7.094183,2.547473 7.094183,7.2354991 0,4.9171299 -1.29382,5.5753179 -4.864496,2.474617 z m 2.435943,-4.243672 C 26.868442,2.7669301 23.760086,1.4246725 20.930031,2.4957485 19.03609,3.212533 19.071483,3.2667123 22.62523,5.0906768 c 1.996227,1.0245713 3.852045,2.2229543 4.124059,2.6630773 1.0115,1.636629 1.820027,-0.107718 1.060204,-2.28731 z"
     style="fill:#868686" />
</svg>
