<?xml version="1.0" encoding="UTF-8" standalone="no"?>
<svg
   xmlns:dc="http://purl.org/dc/elements/1.1/"
   xmlns:cc="http://creativecommons.org/ns#"
   xmlns:rdf="http://www.w3.org/1999/02/22-rdf-syntax-ns#"
   xmlns:svg="http://www.w3.org/2000/svg"
   xmlns="http://www.w3.org/2000/svg"
   viewBox="0 0 41.671875 50.954556"
   height="50.954556"
   width="41.671875"
   version="1.1"
   id="svg2">
  <metadata
     id="metadata8">
    <rdf:RDF>
      <cc:Work
         rdf:about="">
        <dc:format>image/svg+xml</dc:format>
        <dc:type
           rdf:resource="http://purl.org/dc/dcmitype/StillImage" />
        <dc:title></dc:title>
      </cc:Work>
    </rdf:RDF>
  </metadata>
  <defs
     id="defs6" />
  <path
     id="path4192"
     d="m 0.92857903,49.566183 c -0.776045,-0.935077 -1.060893,-5.750869 -0.872445,-14.75 0.267374,-12.768077 0.379753,-13.405477 2.52980297,-14.348755 1.765821,-0.774708 2.25,-1.805437 2.25,-4.789839 0,-5.631104 3.316754,-11.3338185 7.97362,-13.7095745 11.176549,-5.70185 24.02638,1.63033 24.02638,13.7095745 0,2.984402 0.484179,4.015131 2.25,4.789839 2.15005,0.943278 2.262429,1.580678 2.529803,14.348755 0.188448,8.999131 -0.0964,13.814923 -0.872445,14.75 -0.908096,1.094189 -5.126293,1.388373 -19.907358,1.388373 -14.781065,0 -18.999262,-0.294184 -19.90735797,-1.388373 z M 38.835937,35.454556 l 0,-12.5 -18,0 -18,0 0,12.5 0,12.5 18,0 18,0 0,-12.5 z M 15.90065,37.521323 c -2.233837,-2.304735 -2.870043,-3.569046 -2.050753,-4.075395 0.671237,-0.414847 2.107212,0.185355 3.302022,1.380165 l 2.114249,2.114249 3.783393,-3.694384 c 2.706342,-2.642674 4.090484,-3.387294 4.862121,-2.615658 0.771637,0.771637 0.163662,2.120931 -2.135653,4.739706 -5.061763,5.765029 -6.144266,6.000849 -9.875379,2.151317 z M 9.835937,16.904896 c 0,-6.214545 5.279661,-11.9503395 11,-11.9503395 5.720339,0 11,5.7357945 11,11.9503395 0,1.677313 0.507253,3.04966 1.127229,3.04966 0.752809,0 0.964682,-1.691661 0.637866,-5.092904 -0.385444,-4.011386 -1.159797,-5.7633355 -3.64646,-8.2499995 -4.66571,-4.665709 -13.57156,-4.665709 -18.23727,0 -2.486663,2.486664 -3.261016,4.2386135 -3.64646,8.2499995 -0.326816,3.401243 -0.114943,5.092904 0.637866,5.092904 0.619976,0 1.127229,-1.372347 1.127229,-3.04966 z m 19,-0.495795 c 0,-4.580276 -3.665975,-8.4545445 -8,-8.4545445 -4.334025,0 -8,3.8742685 -8,8.4545445 l 0,3.545455 8,0 8,0 0,-3.545455 z"
     style="fill:#868686" />
</svg>
